<?xml version="1.0" standalone="no"?>
<!DOCTYPE svg PUBLIC "-//W3C//DTD SVG 20010904//EN"
 "http://www.w3.org/TR/2001/REC-SVG-20010904/DTD/svg10.dtd">
<svg version="1.0" xmlns="http://www.w3.org/2000/svg"
 width="782.000000pt" height="782.000000pt" viewBox="0 0 782.000000 782.000000"
 preserveAspectRatio="xMidYMid meet">
<metadata>
Created by potrace 1.11, written by Peter Selinger 2001-2013
</metadata>
<g transform="translate(0.000000,782.000000) scale(0.100000,-0.100000)"
fill="#000000" stroke="none">
<path d="M3979 5436 c-2 -2 -49 -6 -104 -10 -144 -9 -196 -15 -315 -36 -30 -5
-71 -12 -90 -15 -60 -10 -230 -54 -309 -81 -115 -39 -195 -78 -376 -184 -16
-10 -93 -57 -170 -105 -199 -123 -365 -203 -439 -210 -119 -12 -221 -70 -300
-171 -38 -49 -96 -153 -108 -193 -3 -12 -140 -14 -883 -15 l-880 -1 -3 -60 -3
-60 866 1 866 1 -6 -26 c-4 -14 -9 -39 -12 -56 -3 -16 -7 -32 -9 -34 -2 -2
-276 -4 -609 -4 l-605 0 0 -63 0 -64 599 0 c330 0 602 -3 604 -7 3 -5 7 -28 8
-53 l4 -45 -340 0 -340 0 0 -60 0 -60 3358 -1 c3154 0 3357 1 3357 17 0 9 12
42 26 74 38 83 53 159 50 255 -4 126 -39 191 -165 312 -92 88 -122 109 -232
164 -61 30 -203 71 -309 88 -101 17 -178 25 -415 41 -213 14 -273 21 -400 46
-210 42 -388 116 -550 230 -298 210 -523 322 -720 358 -33 6 -71 14 -85 16
-27 6 -955 16 -961 11z"/>
<path d="M3347 3664 c-115 -22 -187 -79 -187 -148 0 -60 25 -83 189 -177 128
-73 145 -89 118 -116 -15 -15 -35 -18 -120 -18 -56 1 -113 4 -127 7 -14 3 -42
9 -64 13 -38 8 -38 8 -32 -21 3 -16 7 -46 8 -67 1 -21 5 -40 8 -42 18 -11 80
-17 220 -21 132 -4 167 -2 232 15 114 30 171 74 179 141 7 61 -32 100 -171
170 -100 51 -150 86 -150 105 0 8 13 21 28 29 32 17 194 15 252 -3 19 -6 36
-11 38 -11 7 0 -11 126 -20 137 -5 6 -17 12 -26 12 -9 0 -82 2 -162 4 -95 3
-168 0 -213 -9z"/>
<path d="M6892 3664 c-243 -43 -373 -143 -378 -295 -6 -132 91 -223 291 -275
107 -28 400 -25 510 5 110 30 162 57 220 116 55 55 75 102 75 179 0 119 -111
217 -295 261 -89 22 -322 27 -423 9z m281 -129 c106 -32 147 -78 143 -162 -1
-51 -5 -58 -47 -98 -52 -49 -102 -67 -199 -71 -196 -7 -317 106 -246 232 51
91 218 139 349 99z"/>
<path d="M1229 3666 c-1 -1 -2 -35 -4 -76 -3 -96 -15 -295 -20 -340 -2 -19 -7
-62 -11 -95 -3 -33 -8 -63 -11 -67 -2 -5 65 -8 149 -8 l153 0 3 112 c1 61 4
113 6 116 2 2 83 4 179 4 l174 0 2 65 2 64 -73 -1 c-40 -1 -119 -1 -175 -1
l-102 1 4 28 c2 15 4 37 4 50 l1 23 206 -1 c113 -1 207 0 209 2 2 2 6 32 8 66
l5 62 -354 -2 c-195 0 -354 -1 -355 -2z"/>
<path d="M2326 3587 c-35 -45 -72 -92 -82 -103 -11 -12 -35 -41 -55 -65 -142
-172 -254 -306 -266 -317 -7 -7 -13 -15 -13 -18 0 -2 71 -4 158 -4 l157 1 58
83 58 83 163 1 c89 0 168 -3 175 -7 7 -5 30 -41 51 -82 l38 -74 151 -3 c83 -1
151 0 151 3 0 3 -11 22 -24 43 -33 51 -254 436 -282 493 l-24 47 -175 0 -175
0 -64 -81z m264 -127 c22 -44 40 -82 40 -84 0 -3 -45 -5 -100 -5 -55 0 -100 2
-100 5 0 2 18 28 40 57 67 86 70 91 70 99 0 20 13 2 50 -72z"/>
<path d="M3949 3616 c-1 -83 -16 -325 -24 -396 -2 -19 -7 -59 -10 -87 l-6 -53
150 0 c137 0 151 2 152 18 7 202 9 232 25 442 2 30 6 71 9 91 l5 36 -150 0
-150 1 -1 -52z"/>
<path d="M4419 3577 c0 -51 -2 -101 -4 -112 -2 -11 -6 -54 -9 -95 -5 -73 -19
-193 -31 -258 l-5 -32 360 0 c344 0 360 1 360 19 0 10 3 39 6 65 l7 47 -139
-1 c-76 -1 -171 -2 -211 -1 l-71 1 3 38 c1 20 6 78 10 127 4 50 8 104 10 120
1 17 6 63 9 102 l7 73 -150 -1 -151 -1 -1 -91z"/>
<path d="M5229 3666 c-1 -1 -2 -39 -4 -86 -2 -83 -13 -255 -19 -315 -2 -16 -7
-65 -11 -107 l-7 -78 151 0 151 0 1 78 c1 139 22 432 34 489 5 22 5 22 -145
21 -82 -1 -150 -2 -151 -2z"/>
<path d="M5619 3637 c-1 -18 -2 -48 -3 -67 l0 -34 142 3 143 2 -6 -98 c-7
-134 -17 -231 -31 -325 l-6 -38 149 0 149 0 0 43 c1 60 14 285 20 332 11 94
-3 86 150 84 74 0 137 1 139 2 2 2 6 31 9 65 l5 61 -429 1 -430 1 -1 -32z"/>
<path d="M1058 2952 c-27 -3 -28 -5 -28 -63 l0 -59 3358 0 3357 0 1 60 0 60
-30 1 c-120 2 -6637 3 -6658 1z"/>
<path d="M3741 2698 c-121 -18 -194 -103 -169 -196 12 -46 32 -68 83 -95 58
-30 210 -31 276 0 153 70 126 258 -41 287 -63 11 -94 12 -149 4z m95 -67 c11
-1 30 -10 42 -21 52 -49 32 -130 -37 -151 -103 -31 -189 52 -135 130 18 25 69
50 93 46 9 -2 25 -4 37 -4z"/>
<path d="M5967 2700 c-51 -9 -83 -28 -96 -56 -17 -37 2 -69 69 -116 75 -54 75
-73 0 -74 -30 -1 -63 3 -72 8 -16 8 -18 4 -18 -32 0 -22 3 -40 8 -40 4 0 40
-3 80 -7 88 -7 155 14 175 55 7 15 13 32 13 37 -2 20 -32 52 -78 83 -58 40
-66 52 -44 67 15 12 54 12 101 1 18 -5 20 -1 17 32 -3 35 -7 38 -35 40 -18 2
-43 4 -57 5 -14 2 -42 0 -63 -3z"/>
<path d="M2324 2544 c-56 -85 -97 -154 -93 -155 5 -1 32 -1 59 -1 28 0 54 0
60 1 5 1 18 18 29 40 11 21 26 40 33 43 11 3 85 3 129 -1 9 0 21 -17 28 -41 6
-22 15 -40 19 -41 30 -4 122 -3 122 2 0 3 -31 73 -68 155 l-69 149 -74 1 -74
2 -101 -154z m189 36 l15 -40 -39 0 c-21 0 -39 4 -39 9 0 13 34 71 41 71 3 0
13 -18 22 -40z"/>
<path d="M2759 2646 c-6 -216 -7 -208 29 -232 86 -59 305 -35 339 36 6 14 15
75 18 136 l7 111 -64 1 -63 1 -1 -57 c-2 -147 -22 -192 -85 -192 -53 0 -67 27
-63 116 2 44 6 91 8 105 4 26 3 26 -60 26 l-64 0 -1 -51z"/>
<path d="M3189 2696 c0 -1 -2 -16 -4 -33 l-3 -33 59 0 c40 0 59 -4 60 -12 3
-25 2 -55 -5 -143 l-7 -90 61 0 c33 0 60 2 61 5 2 8 6 81 9 150 2 36 5 71 8
78 3 8 25 12 63 12 l59 0 0 34 0 33 -180 0 c-99 0 -180 -1 -181 -1z"/>
<path d="M4249 2696 c0 0 -2 -21 -4 -46 -13 -202 -15 -260 -8 -261 33 -4 103
-4 104 1 2 7 6 122 8 188 l1 52 39 0 c47 0 67 -18 48 -45 -8 -9 -26 -17 -40
-17 -21 0 -27 -5 -27 -23 0 -33 20 -45 68 -40 88 9 137 59 120 123 -15 57 -51
70 -189 70 -65 -1 -119 -1 -120 -2z"/>
<path d="M4670 2567 c-47 -72 -93 -142 -102 -156 l-17 -26 66 1 66 0 24 42
c14 23 28 42 32 43 3 1 36 2 74 3 l67 2 16 -43 c9 -24 19 -43 23 -44 38 -4
121 -3 121 3 0 6 -45 104 -111 244 -10 22 -19 45 -19 51 0 7 -29 10 -77 10
l-78 0 -85 -130z m173 13 l15 -40 -43 0 -43 0 21 40 c12 22 25 40 28 40 3 0
13 -18 22 -40z"/>
<path d="M5097 2692 c-2 -4 -4 -43 -6 -87 -2 -105 -10 -195 -17 -206 -6 -10
-2 -11 62 -13 25 0 50 1 54 4 5 3 10 57 12 119 3 103 6 115 23 121 19 7 55 5
83 -5 19 -7 14 -43 -7 -55 -11 -5 -33 -10 -50 -10 l-30 0 35 -74 c19 -41 34
-79 34 -85 0 -12 1 -13 75 -15 30 0 55 3 55 7 0 5 -16 35 -35 68 l-35 60 28
12 c68 30 83 101 29 141 -25 19 -44 21 -167 23 -77 1 -141 -1 -143 -5z"/>
<path d="M5470 2663 l0 -33 61 0 60 0 -5 -97 c-4 -54 -8 -108 -10 -120 -3 -13
-2 -23 2 -24 42 -6 115 -2 118 6 4 12 13 145 14 198 l0 37 63 0 63 0 0 34 0
33 -183 0 -183 0 0 -34z"/>
</g>
</svg>
